<?xml version="1.0" encoding="UTF-8"?>
<svg id="Layer_2" data-name="Layer 2" xmlns="http://www.w3.org/2000/svg" viewBox="0 0 1615.3 352.24">
  <defs>
    <style>
      .cls-1 {
        fill: #fff;
        stroke-width: 0px;
      }
    </style>
  </defs>
  <g id="Layer_1-2" data-name="Layer 1">
    <path class="cls-1" d="m414.06,306.43V50.23l-.69-.16c-.72,1.95-1.51,3.88-2.17,5.86-26.97,80.73-53.92,161.46-80.88,242.19q-3.28,9.84-13.6,9.73c-1.16-.01-2.32,0-4.25,0,.65-2.12,1.12-3.79,1.67-5.44,32.81-97.67,65.64-195.33,98.35-293.03,1.26-3.77,2.84-5.34,7-5.12,7.34.39,14.72.11,22.7.11v170.43c.34.06.69.12,1.03.18.61-1.45,1.3-2.88,1.8-4.37,17.96-53.51,35.95-107.01,53.74-160.57,1.46-4.39,3.35-6.04,8.07-5.79,8.16.44,16.36.12,24.97.12v303.44c-9.51,0-18.99.06-28.47-.12-.75-.01-1.87-1.6-2.1-2.61-.36-1.59-.12-3.32-.12-5,0-81.64,0-163.27,0-244.91,0-1.81,0-3.62,0-5.43-.38-.08-.75-.17-1.13-.25-28.31,85.69-56.61,171.37-84.92,257.06-.34-.04-.68-.08-1.01-.12Z"/>
    <path class="cls-1" d="m1004.96,81.13C970.17,22.38,915.82-2.64,847.77,2.1c-9.85.67-19.44,2.72-26.32,10.56-8.46,9.68-16.43,19.78-24.72,29.58-6.29,7.42-12.4,14.92-19.15,21.83-5.24,5.36-11.86,5.74-18.56,2.51-1.97-.92-3.86-1.97-5.82-2.98-9.05-4.61-12.86-3.73-18.69,4.44-18.31,25.94-27.07,54.9-27.66,86.49-.04,24.43,7,52,18.77,73.59,31.93,58.58,98.9,92.23,164.98,82.59,5.53-.84,11.78-1.89,15.92-5.11,3.94-3.06,6.7-8.8,7.96-13.87,3.94-15.55,13.2-24.68,29.08-27.15,1.34-.17,2.6-.54,3.94-.84,11.9-2.6,23.84-4.99,35.7-7.79,7.63-1.84,13.45-6.33,17.68-13.07,33.44-53.14,35.75-108.2,4.06-161.75Zm-18.19,100.82c-1.17,7.38-5.15,13.66-11.19,17.89-9.3,6.5-18.94,12.57-28.75,18.27-11.19,6.5-20.87,14.25-27.62,25.56-6.62,11.1-10.35,22.71-9.39,35.74.67,8.55-1.13,11.15-9.05,14.62-44.54,19.65-97.22,6.08-127.64-33.02-24.93-32.02-33.11-68.77-29.75-108.49.8-9.14,2.85-18.14,4.69-27.11,1.22-5.99,4.57-9.97,11.19-11.31,7.33-1.51,12.07-7.08,15.8-13.16,7.5-12.24,14.54-24.77,21.92-37.09,4.74-7.88,9.81-15.55,14.46-23.47,10.35-17.68,26.69-25.52,46.05-28.5,48.74-7.46,93.36,16.13,116.45,61.22,11.61,22.67,16.59,46.77,17.14,77.44-.92,6.91-2.35,19.19-4.32,31.39Z"/>
    <path class="cls-1" d="m1160.72,69.61c-23.97-40.56-85.19-74.34-118.05-65.12v305.57h30.67v-5.87c0-12.7-.08-25.39.13-38.13.04-1.47,1.34-3.77,2.6-4.23,8.46-2.98,17.1-5.57,26.11-8.46.67,1.01,1.59,2.35,2.47,3.73,10.56,16.64,21.08,33.36,31.72,49.91.96,1.51,2.85,3.31,4.32,3.35,10.52.29,21.08.17,32.85.17-15.38-25.35-30.17-49.7-44.92-74,56.87-46.35,60.93-118.17,32.1-166.91Zm-87.16,180.57V19.07c13.41,4.53,24.85,11.52,34.66,21.08,28.62,27.95,40.02,62.65,38.34,101.87-1.38,32.06-12.57,60.34-34.91,83.77-10.52,11.02-23.01,19.19-38.09,24.39Z"/>
    <path class="cls-1" d="m690.46,101.83C675.12,37.51,611.59-1.3,558.16,1.93v305.91h30.84v-47.6c65.58-13.62,120.31-79.49,101.45-158.4Zm-28.75,45.8c-2.72,28.91-13.87,54.18-33.78,75.39-10.64,11.36-23.38,19.7-38.64,24.89V16.76c15.09,5.11,27.78,13.33,38.26,24.56,27.99,30.05,37.88,66.04,34.15,106.31Z"/>
    <path class="cls-1" d="m1309.44,6.92c-4.11-.17-5.7,1.3-7.12,5.03-36.54,95.08-73.25,190.08-109.87,285.12-1.59,4.15-3.1,8.38-5.03,13.45,3.94,0,7.08-.21,10.18.04,3.69.34,5.57-.88,6.91-4.61,4.27-11.9,9.22-23.63,13.62-35.54,1.17-3.27,2.89-4.15,6.2-4.15,25.31.13,50.58.08,75.89.08,1.43,0,2.89.21,4.82.38v43.54h30.67V7.04c-8.97,0-17.64.25-26.27-.13Zm-4.86,245.48h-79.33c26.23-67.05,52.38-133.84,78.53-200.6.25.04.54.13.8.21v200.39Z"/>
    <path class="cls-1" d="m159.76,5.09h139.61c0,4.33.28,8.5-.19,12.57-.12,1.06-2.61,2.59-4.04,2.62-10.05.23-20.1.12-30.15.12-22.78,0-45.56,0-68.35,0h-5.78v63.86h94.38v13.72h-94.39v194.78h108.15v15.02h-139.25V5.09Z"/>
    <path class="cls-1" d="m1361.87,352.24V7.32h30.58v329.81h122.02v15.12h-152.6Z"/>
    <path class="cls-1" d="m56.53,20.52H0V5.12h144.33v15.14h-56.78v287.51h-31.02V20.52Z"/>
    <path class="cls-1" d="m1574.99,0c-22.8-.17-41.19,17.52-41.28,39.73-.08,21.96,18.02,39.73,40.65,39.81,22.38.08,40.82-17.43,40.94-38.93.13-22.54-17.6-40.4-40.31-40.61Zm-.59,72.96c-18.73-.17-33.65-14.96-33.65-33.31s14.92-32.81,33.94-32.77c18.73,0,33.78,14.75,33.73,33.06-.04,18.14-15.55,33.19-34.03,33.02Z"/>
    <path class="cls-1" d="m1583.79,45.43c1.05-.63,1.76-1.05,2.43-1.47,4.65-3.06,6.33-7.63,5.41-13.49-.88-5.41-4.23-8.63-9.26-9.01-7.25-.59-14.54-.17-21.79-.17v37.46h6.62v-12.07c7.96-1.09,8.26-1.3,14,7.42,3.06,4.69,6.58,5.95,12.15,4.4-3.27-4.44-6.33-8.67-9.55-13.07Zm-3.65-5.91c-4.06.54-8.26.54-12.91.8v-13.24c4.23,0,8.3-.17,12.4.04,3.35.21,5.03,2.47,5.11,5.7.08,3.27-.96,6.2-4.61,6.7Z"/>
  </g>
</svg>